# xmcd
#
# Track frame offsets:
#	150
#	14982
#	30192
#	42287
#	54579
#	65186
#	76458
#	90985
#	104843
#	115920
#	128306
#	139796
#	153052
#	164392
#	179463
#	192705
#	204199
#	218554
#	228401
#	241276
#
# Disc length: 3415 seconds
# Revision: 1
# Processed by: cddbd v1.5.2PL0 Copyright (c) Steve Scherf et al.
# Submitted via: dBpowerAMP V12.0
#
DISCID=100d5514
DTITLE=Various Artist - Christmas Blues CD2 Christmas Blues Rythm and Doo Wop
DYEAR=2005
DGENRE=Blues
TTITLE0=Nat King Cole Trio - The Christmas Song
TTITLE1=Sonny Parker w Lionel Hampton and his Orchestra - Merry Christmas
TTITLE2=Felix Gross - Love For Christmas
TTITLE3=the Marshall Brothers - Mr. Santa's Boogie
TTITLE4=Champion Jack Dupree - Santa Claus Blues
TTITLE5=The Moonglows - Just a Lonely Christmas
TTITLE6=Blind Willie Johnson - Jesus's Coming Soon
TTITLE7=Gatemouth Moore w Tiny Grimes Swingtet - Christmas Blues
TTITLE8=Andrew "Smokey" Hogg - My Christmas Baby
TTITLE9=Jackie Wilson w Billy Ward and The Dominoes - Christmas in Heaven
TTITLE10=Bull Moose Jackson and his Bearcats - I'll be Home for Christmas
TTITLE11=The Orioles - What are you Doing New Year's Eve?
TTITLE12=The Voices - Santa Claus Baby
TTITLE13=The Orioles - (It's Gonna be a) Lonely Christmas
TTITLE14=The Ravens - Silent Night
TTITLE15=The Pilgrim Travellers - I'll be Home for Christmas
TTITLE16=The Ravens - White Christmas
TTITLE17=The Orioles - Oh Holy Night
TTITLE18=Sister Rosetta Tharpe w Sam Price Trio - Jesus is Here to Stay
TTITLE19=Mahalia Jackson - Child of the King
EXTD=
EXTT0=
EXTT1=
EXTT2=
EXTT3=
EXTT4=
EXTT5=
EXTT6=
EXTT7=
EXTT8=
EXTT9=
EXTT10=
EXTT11=
EXTT12=
EXTT13=
EXTT14=
EXTT15=
EXTT16=
EXTT17=
EXTT18=
EXTT19=
PLAYORDER=
